<svg
  xmlns="http://www.w3.org/2000/svg"
  xmlns:xlink="http://www.w3.org/1999/xlink"
  width="1440"
  height="489.71"
  viewBox="0 0 1440 489.71"
>
  <defs>
    <clipPath id="clip-path">
      <path
        id="Path_8"
        data-name="Path 8"
        d="M1440,0H0V489.71H1440Z"
        transform="translate(0 -23.37)"
        fill="#fff"
      />
    </clipPath>
    <clipPath id="clip-path-2">
      <rect
        id="Rectangle_40"
        data-name="Rectangle 40"
        width="1448"
        height="960.877"
        fill="#fff"
        stroke="#73d6ed"
        stroke-width="1"
      />
    </clipPath>
  </defs>
  <g
    id="Mask_Group_3"
    data-name="Mask Group 3"
    transform="translate(0 23.37)"
    opacity="0.115"
    clip-path="url(#clip-path)"
  >
    <g
      id="Group_18"
      data-name="Group 18"
      transform="translate(-8 -380.036)"
      clip-path="url(#clip-path-2)"
    >
      <path
        id="Path_7"
        data-name="Path 7"
        d="M3568.779,429.878q-230.406-172.1-438.394-69.413-207.966,102.691-274.693-81.982T2588.22,181.765q-200.7,87.954-257.441-117.093-56.718-205.048-295.577-39.5T1634.728,199.084q-161.625,8.369-150.491-334.72,11.155-343.09-254.047-124Q965.02-40.543,1081.752-278.082m2515.412,2487.3Q3355.084,2370.069,3204.5,2370.51t-232.168,187.725q-81.526,187.245-263.278,103.477-181.731-83.778-223.585,210.865-41.9,294.644-297.22,11.686-255.344-282.979-312.916-30.869-57.625,252.11-190.335,300.895-132.731,48.785-282.5,51.535-149.756,2.707-168.63-48.4m2335.5-2686.14q-235.043-164.865-438.5-63.309Q2927.37,509.531,2854.049,332.5q-73.288-177.035-269.072-91.978t-260.9-109.512q-65.117-194.57-294.41-37.8Q1800.4,249.984,1637.538,264.583T1475.783-57.123q1.1-336.307-255.949-120.068t-147.205-18.891m2497.3,708.762q-239.454-157.512-438.566-57.226t-278.736-68.928q-79.645-169.214-270.65-87.211T2317.85,197.472q-73.159-183.847-293.286-36.148T1640.522,329.9q-163.9,20.879-172.564-308.387T1210.149-94.594Q961,118.565,1064.09-113.983M3570.443,554.067q-243.67-150.051-438.566-51.165-194.864,98.887-280.531-62.331Q2765.7,279.355,2579.27,358.153t-267.191-94.089Q2231.33,91.178,2019.9,229.507T1643.678,395.042q-164.77,27.2-182.92-294.773-18.128-321.975-259.6-112.122Q959.659,198,1056.177-31.792M3570.941,595.449q-247.724-142.488-438.5-45.125-190.746,97.364-282.152-55.69-91.384-153.053-273.461-77.6T2306.8,330.775q-87.947-161.707-291.167-33.022-203.2,128.685-368.65,162.256T1454.208,179.133Q1426.87-135.315,1192.853,71.019,958.815,277.355,1048.869,50.483m2522.5,586.344Q3319.856,502,3133.044,597.721q-186.79,95.718-283.644-49.01-96.832-144.729-274.736-72.765Q2396.728,547.91,2302,397.594q-94.757-150.315-290.173-31.538-195.448,118.777-361.386,158.75-165.971,39.973-202.182-266.713T1185.222,154.016q-226.807,202.609-143.054-21.179m2529.637,545.37q-255.15-127.072-438.134-33.112-182.963,93.961-284.962-42.294-101.956-136.254-275.948-67.907t-275.082-70.377q-101.113-138.725-289.243-30.1-188.151,108.621-354.4,155.028-166.23,46.408-211.068-252.3T1178.3,237.127q-219.835,198.684-142.233-21.865m2536.1,504.325q-258.522-119.227-437.831-27.138T2848.212,656.9q-106.821-127.637-277.071-63.029-170.219,64.606-277.288-62.34t-288.4-28.717q-181.309,98.23-347.679,151.1T1438.3,416.277q-53.118-290.5-266.219-95.934T1030.6,297.754M3572.519,760.976q-261.733-111.3-437.486-21.187t-287.146-28.768Q2736.527,592.135,2569.8,652.885t-279.3-54.244q-112.592-114.994-287.578-27.373t-341.28,146.969q-166.262,59.344-227.39-222.752-61.1-282.1-267.71-91.828t-140.828-23.35m2547.106,422.07q-264.683-103.3-437.053-15.258t-288.011-21.969q-115.608-110-279.038-53.223-163.409,56.786-281.071-46.1-117.684-102.877-286.821-26.07-169.181,76.809-335.162,142.652-166.036,65.84-234.806-207.653t-269.158-87.7q-200.377,185.8-140.244-24.145M3573.1,843.795q-267.472-95.224-436.577-9.358-169.148,85.867-288.7-15.144t-279.9-48.3q-160.328,52.716-282.649-37.9T1999.14,708.29q-163.83,65.805-329.346,138.155-165.549,72.353-241.7-192.354t-270.542-83.55Q963.139,751.7,1017.8,545.573M3573.34,885.233q-270-87.081-436.037-3.476t-289.243-8.3Q2724.9,781.548,2567.4,830.1q-157.474,48.547-284.011-29.66t-285.5-23.578q-158.966,54.63-323.855,133.494-164.868,78.862-248.08-176.872-83.18-255.736-271.861-79.379-188.7,176.354-139.335-25.823m2558.78,298.426Q3301.2,847.825,3138.1,929.084q-163.116,81.259-289.61-1.444-126.472-82.706-281.353-38.409-154.846,44.3-285.156-21.383t-284.919-22.382Q1842.413,888.76,1678.4,974.14T1424.46,812.921q-89.892-246.6-273.137-75.188-183.222,171.4-138.99-26.7M3573.686,968.215q-274.412-70.619-434.74,8.212t-289.827,5.422q-129.488-73.406-281.957-33.447-152.448,39.959-286.065-13.074-133.639-53.039-284.422-21.218-150.826,31.82-313.8,123.709T1423.617,892.412q-96.282-237.3-274.347-70.98t-138.774-27.6m2563.32,215.943q-276.293-62.309-434,14.019-157.734,76.332-289.892,12.3t-282.454-28.479q-150.308,35.555-286.778-4.739Q2144.194,962.587,1996.7,982.8t-309.241,118.607Q1525.734,1199.8,1423.4,971.95T1147.907,905.2q-173.169,161.093-138.622-28.511m2564.639,174.722q-277.979-53.957-433.227,19.8-155.268,73.758-289.783,19.177t-282.865-23.5q-148.394,31.079-287.275,3.617a1118.291,1118.291,0,0,0-283.6-18.96q-144.729,8.5-305.025,113.378t-268.337-113.378q-108.052-218.253-276.574-62.508t-138.578-29.441m2565.309,133.533q-279.374-45.563-432.362,25.559-152.967,71.125-289.5,26.059-136.557-45.067-283.211-18.521-146.675,26.545-287.535,11.989-140.838-14.555-283.3-17.864t-301.112,108.036q-158.674,111.342-272.077-97.188t-277.591-58.243q-164.186,150.283-138.622-30.384m2565.352,92.393q-280.606-37.136-431.454,31.293t-289.091,32.934q-138.244-35.5-283.449-13.536a1787.1,1787.1,0,0,1-287.578,20.373q-142.33-1.589-283.059-16.786-140.676-15.2-297.544,102.586-156.826,117.786-275.278-80.9-118.429-198.682-278.541-53.966t-138.751-31.333m2564.747,51.32q-281.579-28.678-430.459,37-148.913,65.679-288.508,39.8-139.638-25.881-283.622-8.548t-287.384,28.762a1040.916,1040.916,0,0,1-282.887-15.723q-139.509-27.154-294.324,97.046t-277.936-64.522q-123.1-188.724-279.428-49.674T1010.5,1208.808m2563.493,10.262q-282.325-20.2-429.422,42.684t-287.773,46.662a1395.107,1395.107,0,0,0-283.666-3.557q-143.043,12.67-286.994,37.151-143.983,24.483-282.779-14.672t-291.4,91.424q-152.61,130.579-280.076-48.082-127.445-178.659-280.271-45.363t-139.271-33.249m2561.656-30.876q-282.876-11.7-428.341,48.342t-286.865,53.507a2774.374,2774.374,0,0,0-283.665,1.433q-142.265,7.975-286.367,45.533-144.081,37.559-282.736-13.628-138.633-51.189-288.854,85.729-150.178,136.917-281.633-31.587-131.4-168.5-281.049-41.043-149.626,127.463-139.682-34.2m2559.169-71.962q-283.135-3.2-427.173,53.977-144.016,57.172-285.805,60.333t-283.557,6.421q-141.779,3.261-285.524,53.9t-282.779-12.593q-138.99-63.237-286.605,79.974t-282.67-15.052q-135.034-158.264-281.763-36.708-146.707,121.557-140.178-35.157m2556.056-112.977q-283.233,5.317-425.984,59.582-142.719,54.269-284.573,67.139a2810.353,2810.353,0,0,1-283.362,11.4q-141.519-1.466-284.465,62.261t-282.865-11.557q-139.9-75.285-284.725,74.17t-283.146,1.506q-138.341-147.953-282.412-32.36t-140.762-36.1m2552.273-153.921q-283.071,13.83-424.708,65.165-141.617,51.333-283.19,73.918a1402.729,1402.729,0,0,1-283.082,16.386q-141.519-6.2-283.189,70.593T2016.76,1603.1q-141.357-87.317-283.19,68.327T1450.489,1689.5q-141.26-137.575-283-28t-141.454-37.035m2547.884-194.783q-282.682,22.34-423.368,70.722a2761.7,2761.7,0,0,1-281.654,80.672q-140.968,32.287-282.714,21.357t-281.7,78.9q-139.93,89.833-283.255-9.482-143.3-99.317-281.979,62.458t-282.476,34.629q-143.789-127.141-283.514-23.63-139.7,103.515-142.211-37.954M3573.924,1471.8q-282.1,30.84-422.006,76.254t-279.968,87.392q-140.028,41.976-282.238,26.322-142.233-15.654-279.969,87.175-137.757,102.832-283.557-8.436t-281.136,56.572q-135.325,167.838-281.309,51.169Q1317.715,1731.58,1179.774,1829q-137.984,97.419-143.075-38.858m2537.2-276.218q-281.254,39.321-420.558,81.761t-278.109,94.075q-138.8,51.637-281.719,31.278t-278.023,95.411q-135.1,115.772-283.925-7.379t-280.595,50.68q-131.791,173.831-279.623,67.672t-284.357-14.861q-136.525,91.3-144.049-39.739M3573.9,1556.043q-280.184,47.783-419.087,87.241a2053.206,2053.206,0,0,0-276.1,100.721q-137.206,61.262-281.07,36.223-143.887-25.04-275.883,103.6t-284.357-6.312q-152.383-134.958-280.423,44.8-128.061,179.751-277.374,84.125-149.334-95.627-284.7-10.464t-145.064-40.6m2524.038-357.213q-278.888,56.212-417.531,92.693t-273.936,107.325q-135.293,70.844-280.358,41.154t-273.5,111.75q-128.418,141.438-284.876-5.227Q1887.24,1799.2,1763.1,1984.79T1488.517,2085.3q-150.469-85.08-284.962-6.06t-146.21-41.43m2516.536-397.524q-277.4,64.616-415.953,98.124-138.535,33.511-271.6,113.881t-279.558,46.074q-146.513-34.3-270.91,119.84-124.429,154.14-285.459-4.122-161.009-158.261-281.071,33.086t-271.255,116.816q-151.248-74.528-285.157-1.646-133.931,72.881-147.443-42.233m2508.386-437.7q-275.645,72.978-414.289,103.529t-269.137,120.388q-130.493,89.833-278.671,50.976t-268.1,127.874q-119.954,166.729-286.086-3t-281.914,27.284q-115.8,197.016-267.407,133.028-151.637-63.984-285.287,2.771-133.671,66.756-148.739-43m2499.608-477.73q-273.666,81.294-412.58,108.908-138.892,27.612-266.5,126.841t-277.7,55.863q-150.08-43.365-265.094,135.842t-286.778-1.848q-171.775-181.052-283.1,21.533t-263,149.128q-151.67-53.458-285.352,7.192-133.7,60.649-150.145-43.732m2490.247-517.607q-271.526,89.562-410.829,114.261t-263.732,133.238q-124.4,108.539-276.639,60.731-152.221-47.808-261.851,143.741t-287.557-.668q-177.9-192.217-284.616,15.843t-258.068,165.1q-151.345-42.956-285.373,11.619-133.995,54.572-151.615-44.426m2480.26-557.32q-269.094,97.773-409.013,119.587t-260.814,139.575q-120.862,117.764-275.471,65.582-154.588-52.185-258.436,151.562-103.8,203.747-288.378.541-184.552-203.2-286.454,10.225-101.924,213.427-252.6,180.941-150.7-32.49-285.308,16.049-134.644,48.54-153.193-45.077M3573.816,1850.9q-266.5,105.925-407.154,124.888-140.708,18.963-257.744,145.85t-274.239,70.409q-157.215-56.48-254.782,159.306t-289.286,1.787q-191.686-214-288.637,4.687t-246.61,196.629q-149.659-22.076-285.179,20.472-135.52,42.566-154.858-45.677m2458.468-636.231q-263.613,114.013-405.251,130.166-141.584,16.15-254.5,152.056-112.885,135.9-272.92,75.212t-250.934,166.967q-90.9,227.656-290.237,3.068t-291.146-.756Q1717,2643.565,1568.7,2631.874T1283.7,2656.793q-136.687,36.6-156.566-46.25m2446.641-675.4q-260.565,122.027-403.262,135.417-142.719,13.388-251.15,158.2-108.409,144.805-271.515,79.994T2400.976,2483.28q-83.8,239.356-291.254,4.386-207.511-234.961-294-6.092t-233.055,227.462q-146.578-1.386-284.746,29.365t-158.4-46.744m2436.329-707.043q-257.29,129.966-401.273,140.643-143.951,10.675-247.6,164.258-103.675,153.583-270.045,84.75-166.392-68.834-242.632,182.015-76.207,250.82-292.312,5.735-216.138-245.079-297.156-11.3-81.039,233.775-225.531,242.594a2478.489,2478.489,0,0,0-284.422,33.791q-139.93,24.972-160.284-47.2M3580.3,2040.972q-253.787,137.822-399.176,145.842-145.411,8.02-243.972,170.245-98.584,162.228-268.489,89.478t-238.135,189.376q-68.262,262.131-293.48,7.175-225.217-254.987-300.614-16.434-75.429,238.577-217.467,257.545-142.07,18.947-284.054,38.216t-162.252-47.582m2412.7-777.625q-250.124,145.591-397.08,151.017t-240.167,176.152q-93.2,170.728-266.824,94.178T2447.781,2715.2q-59.863,273.215-294.647,8.614-234.784-264.579-304.42-21.374t-208.906,272.238a2581.541,2581.541,0,0,1-283.6,42.641q-144.275,13.663-164.305-47.9M3590.982,2153.3q-246.2,153.27-394.9,156.165-148.718,2.9-236.233,181.979t-265.094,98.846q-177.58-80.228-228.644,203.819t-295.923,10.118q-244.837-273.924-308.506-26.186-63.69,247.728-199.869,286.674-136.2,38.958-283.081,47.088-146.87,8.152-166.446-48.184"
        transform="translate(-1616.09 154.16)"
        fill="none"
        stroke="#73d6ed"
        stroke-width="2"
      />
    </g>
  </g>
</svg>
